<svg xmlns="http://www.w3.org/2000/svg" 
    xmlns:xlink="http://www.w3.org/1999/xlink" width="640" height="640">
    <defs>
        <path id="bg8yo20yf" d="M593.04 320c0 148.72-122.35 269.46-273.04 269.46-150.69 0-273.04-120.74-273.04-269.46C46.96 171.28 169.31 50.54 320 50.54c150.69 0 273.04 120.74 273.04 269.46z"/>
        <text id="c6gpHO32Uj" x="205.71" y="297.68" alignment-baseline="before-edge" dominant-baseline="text-before-edge" font-family="Lato" font-size="298" letter-spacing="0" transform="rotate(.159 57138.083 -21803.26)" style="line-height:100%">
            <tspan x="205.71" alignment-baseline="before-edge" dominant-baseline="text-before-edge" dy="0em">TE</tspan>
        </text>
    </defs>
    <filter id="shadow5256668" width="652.07" height="644.93" x="-2.04" y="1.54" filterUnits="userSpaceOnUse">
        <feFlood/>
        <feComposite in2="SourceAlpha" operator="in"/>
        <feGaussianBlur stdDeviation="3.46"/>
        <feOffset dx="8" dy="8" result="afterOffset"/>
        <feFlood flood-color="#5bb1c6" flood-opacity=".5"/>
        <feComposite in2="afterOffset" operator="in"/>
        <feMorphology operator="dilate" radius="12"/>
        <feComposite in2="SourceAlpha" operator="out"/>
    </filter>
    <path id="ac9y9pBmK" fill="#fff" d="M593.04 320c0 148.72-122.35 269.46-273.04 269.46-150.69 0-273.04-120.74-273.04-269.46C46.96 171.28 169.31 50.54 320 50.54c150.69 0 273.04 120.74 273.04 269.46z" filter="url(#shadow5256668)"/>
    <use fill="#e8edef" xlink:href="#bg8yo20yf"/>
    <g>
        <use fill-opacity="0" stroke="#0778b3" stroke-width="15" xlink:href="#bg8yo20yf"/>
    </g>
    <g id="iKovXPlKl">
        <filter id="shadow14040828" width="453.26" height="466.24" x="158.71" y="250.68" filterUnits="userSpaceOnUse">
            <feFlood/>
            <feComposite in2="SourceAlpha" operator="in"/>
            <feGaussianBlur stdDeviation="3.87"/>
            <feOffset dx="10" dy="10" result="afterOffset"/>
            <feFlood flood-color="#1a91cf" flood-opacity=".5"/>
            <feComposite in2="afterOffset" operator="in"/>
            <feMorphology operator="dilate" radius="2"/>
            <feComposite in2="SourceAlpha" operator="out"/>
        </filter>
        <text id="dlu21W09X" x="205.71" y="297.68" fill="#fff" alignment-baseline="before-edge" dominant-baseline="text-before-edge" filter="url(#shadow14040828)" font-family="Lato" font-size="298" letter-spacing="0" transform="rotate(.159 57138.083 -21803.26)" style="line-height:100%">
            <tspan x="205.71" alignment-baseline="before-edge" dominant-baseline="text-before-edge" dy="0em">TE</tspan>
        </text>
        <use fill="#4084f6" xlink:href="#c6gpHO32Uj"/>
    </g>
</svg>